# xmcd
#
# Track frame offsets: 
#        150
#        68107
#        135255
#        193892
#        234095
#
# Disc length: 3796 seconds
#
# Revision: 6
# Processed by: cddbd v1.5.2PL0 Copyright (c) Steve Scherf et al.
# Submitted via: ExactAudioCopy v0.95b3
#
DISCID=3a0ed205
DTITLE=Miles Davis - Miles Davis - My Funny Valentine (1964) {2000 Jap
DTITLE=an Mini LP, Master Sound, SRCS 9706}
DYEAR=1964
DGENRE=Jazz
TTITLE0=My Funny Valentine
TTITLE1=All of You
TTITLE2=Stella by Starlight
TTITLE3=All Blues
TTITLE4=I Thought About You
EXTD=
EXTT0=
EXTT1=
EXTT2=
EXTT3=
EXTT4=
PLAYORDER=
